<svg xmlns="http://www.w3.org/2000/svg" width="143.185" height="80.222" viewBox="0 0 143.185 80.222"><defs><style>.a{fill:#fff;}</style></defs><g transform="translate(-2104.815 -39.889)"><path class="a" d="M2161.029,72.535h-5.873l-.032,47.038c6.655,0,6.49.807,6.49-4.576l-.039-28.686h.134l5.376,33.262h6.989l4.972-33.733h.135v29.314c0,4.377-.1,4.38,2.925,4.38h4.063v-47h-5.316c-3.926,0-4.877-.593-5.459,3.317l-4.479,30.08h-.134l-4.767-29.794c-.635-3.968-1.45-3.6-4.985-3.6m-20.61,8.333h.134q1.748,11.894,3.494,23.788h-7.123Zm5.846-8.333h-7.979c-2.943.377-3.327,1.431-4.12,6.518-2.11,13.506-4.085,27.014-6.246,40.52,8.749,0,6.688.661,8.064-8.534h9.071c1.435,9.591-.595,8.534,8.736,8.534Zm-29.585,27.551h3.36v8.669c0,3.36-1.479,4.569-3.831,4.569s-3.83-1.209-3.83-4.569v-25.4c0-3.36,1.479-4.636,3.83-4.636s3.831,1.276,3.831,4.636v5.04c6.9,0,6.988.587,6.988-4.57,0-7.526-3.763-11.826-11.02-11.826s-11.02,4.3-11.02,11.826v24.461c0,7.525,3.762,11.826,11.02,11.826s11.02-4.3,11.02-11.826V93.366h-6.712c-3.089,0-3.636-.144-3.636,2.613Zm78.891-27.551H2189.7l-.032,47.038c6.654,0,6.489.807,6.489-4.576l-.038-28.686h.134l5.376,33.262h6.988l4.973-33.733h.134v29.314c0,4.377-.1,4.38,2.925,4.38h4.064v-47H2215.4c-3.927,0-4.877-.593-5.459,3.317l-4.479,30.08h-.134l-4.767-29.794C2199.92,72.17,2199.1,72.535,2195.571,72.535Zm39.931,8.333h-.135q-1.748,11.894-3.494,23.788H2239Zm-5.847-8.333h7.979c2.943.377,3.327,1.431,4.12,6.518,2.11,13.506,4.085,27.014,6.246,40.52-8.749,0-6.688.661-8.064-8.534h-9.071c-1.435,9.591.6,8.534-8.736,8.534Z"/><path class="a" d="M2108.677,63.819V47.676h-3.545V63.819Zm.317-20.828a2.095,2.095,0,1,0-4.179,0,2.093,2.093,0,1,0,4.179,0Z"/><path class="a" d="M2113.046,47.676V63.819h3.577V54.481c0-2.437,1.044-4.241,2.627-4.241,1.709,0,1.962,1.8,1.962,3.45V63.819h3.577V53.69c0-3.323-.633-6.552-4.146-6.552a4.282,4.282,0,0,0-4.02,3.1h-.064V47.676Z"/><path class="a" d="M2135.394,50.43V47.676h-2.817V43.561h-3.355v4.115H2127.2V50.43h2.026v9.1c0,2.987,1.139,4.7,3.861,4.7a5.239,5.239,0,0,0,2.279-.412L2135.3,61a2.488,2.488,0,0,1-1.108.253c-1.108,0-1.614-.759-1.614-2.532V50.43Z"/><path class="a" d="M2145.492,54.07h-4.938c.031-1.551.759-4.052,2.595-4.052,1.615,0,2.343,1.678,2.343,4.052m3.418,2.6V55.305c0-4.622-1.582-8.167-5.729-8.167-3.672,0-6.172,3.45-6.172,8.641,0,5.476,2.5,8.578,6.235,8.578a5.424,5.424,0,0,0,5.255-3.671l-2.628-1.52c-.474,1.108-1.2,2.089-2.5,2.089-1.836,0-2.817-2.057-2.849-4.589Z"/><path class="a" d="M2171.386,50.778h-.064v-3.1h-3.514V63.819h3.641v-8.1c0-2.469,1.044-4.938,2.912-4.938a2.633,2.633,0,0,1,.76.1l.189-3.672a1.484,1.484,0,0,0-.538-.063c-1.582,0-2.849,1.266-3.386,3.64"/><path class="a" d="M2184.016,61.414v2.4h2.975V54.228c0-4.494-1.361-7.09-5.349-7.09a6.512,6.512,0,0,0-4.938,2.342l1.709,2.248a3.716,3.716,0,0,1,2.944-1.551c1.424,0,2.374.918,2.374,3.038v.507h-.886c-3.071,0-6.679,1.076-6.679,5.634,0,3.577,2.247,4.875,4.083,4.875a3.515,3.515,0,0,0,3.7-2.817Zm-.19-4.242c0,1.931-.7,4.368-2.627,4.368-.982,0-1.836-.791-1.836-2.469,0-2.311,1.677-2.817,3.418-2.817h1.045Z"/><rect class="a" width="3.609" height="23.93" transform="translate(2191.043 39.889)"/><path class="a" d="M2202.5,63.819V47.676h-3.545V63.819Zm.316-20.828a2.095,2.095,0,1,0-4.178,0,2.093,2.093,0,1,0,4.178,0Z"/><path class="a" d="M2214.816,55.748c0,3.038-.886,5.476-2.722,5.476-1.867,0-2.659-2.438-2.659-5.476,0-3.1.792-5.508,2.659-5.508,1.8,0,2.722,2.406,2.722,5.508m3.387,8.071V39.889h-3.513v9.845h-.095a3.572,3.572,0,0,0-3.514-2.6c-3.418,0-5.223,3.577-5.223,8.451,0,4.97,1.9,8.768,5.223,8.768a3.533,3.533,0,0,0,3.609-2.848h.063v2.31Z"/><path class="a" d="M2229.251,61.414v2.4h2.975V54.228c0-4.494-1.361-7.09-5.349-7.09a6.513,6.513,0,0,0-4.938,2.342l1.71,2.248a3.715,3.715,0,0,1,2.943-1.551c1.425,0,2.374.918,2.374,3.038v.507h-.886c-3.07,0-6.679,1.076-6.679,5.634,0,3.577,2.248,4.875,4.083,4.875a3.516,3.516,0,0,0,3.7-2.817Zm-.19-4.242c0,1.931-.7,4.368-2.627,4.368-.981,0-1.836-.791-1.836-2.469,0-2.311,1.678-2.817,3.419-2.817h1.044Z"/><path class="a" d="M2244.287,55.748c0,3.038-.886,5.476-2.722,5.476-1.867,0-2.659-2.438-2.659-5.476,0-3.1.792-5.508,2.659-5.508,1.8,0,2.722,2.406,2.722,5.508m3.387,8.071V39.889h-3.513v9.845h-.095a3.572,3.572,0,0,0-3.514-2.6c-3.418,0-5.223,3.577-5.223,8.451,0,4.97,1.9,8.768,5.223,8.768a3.533,3.533,0,0,0,3.609-2.848h.063v2.31Z"/><path class="a" d="M2164.462,62.695v-9.9h-5.377v2.868h2.371v5.046a3.556,3.556,0,0,1-2.068.552c-2.757,0-4.053-3.171-4.053-7.17,0-3.832,1.3-7.141,4.025-7.141a3.474,3.474,0,0,1,2.978,1.6l1.9-2.316a5.943,5.943,0,0,0-5.074-2.372c-4.412,0-7.169,4.274-7.169,10.23,0,6.094,2.757,10.2,7.418,10.2a7.817,7.817,0,0,0,5.046-1.6"/></g></svg>